# xmcd CD database file
#
# Track frame offsets:
#	150
#	11495
#	34637
#	52715
#	70695
#	84049
#	107379
#	122753
#	137119
#	149913
#	166226
#	192847
#	209245
#	218553
#
# Disc length: 3224 seconds
#
# Revision: 3
# Processed by: cddbd v1.5.1PL0 Copyright (c) Steve Scherf et al.
# Submitted via: CdAid (MTCDDB.DLL V2003.12.21)
#
DISCID=bd0c960e
DTITLE=Pino Daniele - Passi d'autore
DYEAR=2004
DGENRE=Rock
TTITLE0=Arriverà l'aurora
TTITLE1=Pigro
TTITLE2=Bella da vivere
TTITLE3=La mia casa sei tu
TTITLE4=Gli stessi sguardi
TTITLE5=Nuages sulle note
TTITLE6=Dammi una seconda vita
TTITLE7=Deja-vu
TTITLE8=Ali di cera
TTITLE9=La nostra estate insieme
TTITLE10=Isola grande
TTITLE11=Tango della buena suerte
TTITLE12=Concerto per noi due
TTITLE13=Sofia sulle note
EXTD=YEAR: 2004 ID3G:  17
EXTT0=
EXTT1=
EXTT2=
EXTT3=
EXTT4=
EXTT5=
EXTT6=
EXTT7=
EXTT8=
EXTT9=
EXTT10=
EXTT11=
EXTT12=
EXTT13=
PLAYORDER=
